<svg width="80" height="80" viewBox="0 0 80 80" fill="none" xmlns="http://www.w3.org/2000/svg">
<path d="M63.7551 0H16.2449C7.2731 0 0 7.2731 0 16.2449V63.7551C0 72.7269 7.2731 80 16.2449 80H63.7551C72.7269 80 80 72.7269 80 63.7551V16.2449C80 7.2731 72.7269 0 63.7551 0Z" fill="white"/>
<path d="M63.7551 0.156397C72.6259 0.156397 79.8436 7.3741 79.8436 16.2449V63.7551C79.8436 72.6259 72.6259 79.8436 63.7551 79.8436H16.2449C7.3741 79.8436 0.156397 72.6259 0.156397 63.7551V16.2449C0.156397 7.3741 7.3741 0.156397 16.2449 0.156397H63.7551ZM63.7551 0H16.2449C7.27244 0 0 7.27244 0 16.2449V63.7551C0 72.7276 7.27244 80 16.2449 80H63.7551C72.7276 80 80 72.7276 80 63.7551V16.2449C80 7.27244 72.726 0 63.7551 0Z" fill="#FECD05"/>
<path d="M40.0001 56.8657C52.1402 56.8657 61.9816 47.0243 61.9816 34.8842C61.9816 22.7441 52.1402 12.9026 40.0001 12.9026C27.86 12.9026 18.0186 22.7441 18.0186 34.8842C18.0186 47.0243 27.86 56.8657 40.0001 56.8657Z" fill="#FECD05"/>
<path d="M39.7153 56.8064L22.2598 67.0958C22.1426 66.9785 22.1426 66.7861 22.2598 66.6688L39.5088 29.3776C39.6261 29.2603 39.8185 29.2603 39.9358 29.3776L39.7137 56.808C39.5964 56.9253 39.831 56.9253 39.7137 56.808L39.7153 56.8064Z" fill="#2644D9"/>
<path d="M39.701 56.8063L39.4961 29.3759C39.6134 29.2586 39.8058 29.2586 39.9231 29.3759L57.172 66.6671C57.2893 66.7844 57.2893 66.9767 57.172 67.094L39.701 56.8047C39.5837 56.922 39.8183 56.922 39.701 56.8047V56.8063Z" fill="#2644D9"/>
</svg>
