<svg width="282" height="260" viewBox="0 0 282 260" fill="none" xmlns="http://www.w3.org/2000/svg">
<circle cx="99.7725" cy="109.5" r="99.5" fill="#FECD05"/>
<mask id="mask0_62_68138" style="mask-type:luminance" maskUnits="userSpaceOnUse" x="30" y="18" width="252" height="224">
<path d="M281.728 18.6H30.2725V241.4H281.728V18.6Z" fill="white"/>
</mask>
<g mask="url(#mask0_62_68138)">
<path d="M119.287 87.7808C111.149 87.7808 103.603 83.5418 97.7535 75.403C96.5665 73.7074 96.9057 71.4184 98.6012 70.1467C98.686 70.1467 98.686 70.0619 98.7708 70.0619C113.353 60.5666 129.207 55.9885 147.265 55.9885C149.299 55.9885 150.995 57.6841 150.995 59.8036C150.995 61.8383 149.299 63.4491 147.265 63.5339C131.92 63.5339 118.864 66.9251 106.486 74.2161C110.301 78.2007 115.811 81.5071 123.102 79.8963C124.968 79.5572 126.748 79.0485 128.698 78.6246C134.039 77.3529 139.974 75.9117 147.18 75.6573C149.214 75.5725 150.995 77.1834 151.08 79.2181C151.164 81.2528 149.554 83.0331 147.519 83.1179C141.076 83.3722 135.735 84.6439 130.478 85.9156C128.528 86.4243 126.578 86.8482 124.713 87.2721C122.848 87.6112 121.068 87.7808 119.287 87.7808Z" fill="#2644D9"/>
</g>
<mask id="mask1_62_68138" style="mask-type:luminance" maskUnits="userSpaceOnUse" x="30" y="18" width="252" height="224">
<path d="M281.728 18.6H30.2725V241.4H281.728V18.6Z" fill="white"/>
</mask>
<g mask="url(#mask1_62_68138)">
<path d="M100.808 77.0129C99.9602 77.0129 99.1124 76.7586 98.5189 76.1651C92.4148 71.3327 89.1932 65.4829 89.278 59.2093C89.3628 50.9857 95.043 42.5925 105.98 34.3689C119.799 23.9411 129.972 18.6 147.182 18.6C149.217 18.6 150.913 20.2956 150.913 22.3303C150.913 24.365 149.217 26.0606 147.182 26.0606C132.007 26.0606 123.274 30.6386 110.388 40.3035C101.486 47.001 96.7386 53.6138 96.7386 59.294C96.6538 63.1939 98.8581 66.8394 103.182 70.3153C104.793 71.587 105.047 73.9609 103.775 75.5717C103.012 76.4195 101.91 77.0129 100.808 77.0129Z" fill="#2644D9"/>
</g>
<mask id="mask2_62_68138" style="mask-type:luminance" maskUnits="userSpaceOnUse" x="30" y="18" width="252" height="224">
<path d="M281.728 18.6H30.2725V241.4H281.728V18.6Z" fill="white"/>
</mask>
<g mask="url(#mask2_62_68138)">
<path d="M175.159 87.7798C173.379 87.7798 171.598 87.6103 169.818 87.1864C167.953 86.8473 166.088 86.3386 164.053 85.9147C158.796 84.643 153.455 83.3713 147.012 83.117C144.977 83.0322 143.367 81.2518 143.451 79.2171C143.536 77.1824 145.317 75.5716 147.351 75.6564C154.473 75.9107 160.492 77.352 165.833 78.6237C167.698 79.0476 169.563 79.5563 171.344 79.8954C178.72 81.5062 184.146 78.1998 187.876 74.2152C175.583 66.9241 162.527 63.533 147.182 63.533C145.147 63.533 143.451 61.8374 143.451 59.8027C143.451 57.768 145.147 56.0724 147.182 56.0724C165.324 56.0724 181.093 60.6505 195.506 70.1458C197.202 71.2479 197.71 73.6217 196.608 75.3173C196.608 75.4021 196.523 75.4021 196.523 75.4021C190.843 83.5409 183.298 87.7798 175.159 87.7798Z" fill="#2644D9"/>
</g>
<mask id="mask3_62_68138" style="mask-type:luminance" maskUnits="userSpaceOnUse" x="30" y="18" width="252" height="224">
<path d="M281.728 18.6H30.2725V241.4H281.728V18.6Z" fill="white"/>
</mask>
<g mask="url(#mask3_62_68138)">
<path d="M193.471 77.0129C191.436 77.0129 189.741 75.3173 189.741 73.2826C189.741 72.0957 190.25 71.0784 191.182 70.3153C195.506 66.9242 197.71 63.1939 197.71 59.294C197.625 53.6138 192.878 47.001 184.061 40.3883C171.259 30.7234 162.442 26.1453 147.266 26.1453C145.232 26.1453 143.536 24.4497 143.536 22.3303C143.536 20.2956 145.232 18.6848 147.266 18.6C164.477 18.6 174.65 23.9411 188.554 34.3689C199.49 42.5925 205.171 50.9857 205.255 59.2093C205.34 63.533 203.729 70.061 195.93 76.1651C195.167 76.6738 194.319 77.0129 193.471 77.0129Z" fill="#2644D9"/>
</g>
<mask id="mask4_62_68138" style="mask-type:luminance" maskUnits="userSpaceOnUse" x="30" y="18" width="252" height="224">
<path d="M281.728 18.6H30.2725V241.4H281.728V18.6Z" fill="white"/>
</mask>
<g mask="url(#mask4_62_68138)">
<path d="M230.604 241.401H63.7586C61.7239 241.401 60.0283 239.705 60.0283 237.67C60.0283 235.636 61.7239 233.94 63.7586 233.94H230.604C232.639 233.94 234.335 235.636 234.335 237.67C234.419 239.705 232.724 241.401 230.604 241.401Z" fill="#2644D9"/>
</g>
<mask id="mask5_62_68138" style="mask-type:luminance" maskUnits="userSpaceOnUse" x="30" y="18" width="252" height="224">
<path d="M281.728 18.6H30.2725V241.4H281.728V18.6Z" fill="white"/>
</mask>
<g mask="url(#mask5_62_68138)">
<path d="M133.873 194.093C133.11 194.093 132.262 193.839 131.669 193.33L102.928 172.05C101.233 170.863 100.894 168.49 102.081 166.794C103.268 165.098 105.641 164.759 107.337 165.946C107.337 165.946 107.337 165.946 107.422 165.946L133.619 185.361L140.655 178.663L112.678 165.946C110.813 165.098 109.965 162.809 110.898 160.944C111.745 159.079 113.95 158.316 115.815 159.079L148.879 174.085C150.744 174.933 151.592 177.137 150.744 179.087C150.574 179.511 150.235 179.935 149.896 180.274L136.501 192.991C135.738 193.754 134.805 194.093 133.873 194.093Z" fill="#2644D9"/>
</g>
<mask id="mask6_62_68138" style="mask-type:luminance" maskUnits="userSpaceOnUse" x="30" y="18" width="252" height="224">
<path d="M281.728 18.6H30.2725V241.4H281.728V18.6Z" fill="white"/>
</mask>
<g mask="url(#mask6_62_68138)">
<path d="M132.939 241.399C130.905 241.399 129.209 239.704 129.209 237.669C129.209 237.245 129.294 236.736 129.463 236.313L142.943 201.214L133.702 190.362C132.346 188.751 132.515 186.378 134.126 185.106C135.737 183.749 138.111 183.919 139.383 185.53L150.065 198.162C150.912 199.179 151.167 200.62 150.743 201.892L136.5 239.026C135.907 240.467 134.55 241.399 132.939 241.399Z" fill="#2644D9"/>
</g>
<mask id="mask7_62_68138" style="mask-type:luminance" maskUnits="userSpaceOnUse" x="30" y="18" width="252" height="224">
<path d="M281.728 18.6H30.2725V241.4H281.728V18.6Z" fill="white"/>
</mask>
<g mask="url(#mask7_62_68138)">
<path d="M161.425 241.4C159.899 241.4 158.457 240.467 157.949 239.026L143.706 201.892C143.197 200.621 143.451 199.179 144.384 198.077L155.066 185.445C156.423 183.919 158.797 183.75 160.323 185.106C161.849 186.463 162.018 188.752 160.746 190.362L151.506 201.299L164.985 236.398C165.748 238.348 164.731 240.552 162.781 241.23C162.357 241.315 161.933 241.4 161.425 241.4Z" fill="#2644D9"/>
</g>
<mask id="mask8_62_68138" style="mask-type:luminance" maskUnits="userSpaceOnUse" x="30" y="18" width="252" height="224">
<path d="M281.728 18.6H30.2725V241.4H281.728V18.6Z" fill="white"/>
</mask>
<g mask="url(#mask8_62_68138)">
<path d="M94.0291 241.399C91.9944 241.399 90.2988 239.703 90.2988 237.669V217.067C90.2988 215.033 91.9944 213.337 94.0291 213.337C96.0638 213.337 97.7594 215.033 97.7594 217.067V237.669C97.7594 239.788 96.1486 241.399 94.0291 241.399Z" fill="#2644D9"/>
</g>
<mask id="mask9_62_68138" style="mask-type:luminance" maskUnits="userSpaceOnUse" x="30" y="18" width="252" height="224">
<path d="M281.728 18.6H30.2725V241.4H281.728V18.6Z" fill="white"/>
</mask>
<g mask="url(#mask9_62_68138)">
<path d="M200.338 241.399C198.303 241.399 196.607 239.703 196.607 237.669V217.067C196.607 215.033 198.303 213.337 200.338 213.337C202.372 213.337 204.068 215.033 204.068 217.067V237.669C204.153 239.788 202.457 241.399 200.338 241.399Z" fill="#2644D9"/>
</g>
<mask id="mask10_62_68138" style="mask-type:luminance" maskUnits="userSpaceOnUse" x="30" y="18" width="252" height="224">
<path d="M281.728 18.6H30.2725V241.4H281.728V18.6Z" fill="white"/>
</mask>
<g mask="url(#mask10_62_68138)">
<path d="M63.7586 241.4C61.7239 241.4 60.0283 239.704 60.0283 237.67C60.0283 224.868 61.6391 200.536 72.5757 181.122C73.593 179.341 75.882 178.663 77.6624 179.681C79.4428 180.698 80.121 182.987 79.1037 184.767C71.7279 197.823 67.4889 217.153 67.4889 237.585C67.4889 239.789 65.8781 241.4 63.7586 241.4ZM95.8052 173.746C93.7705 173.746 92.0749 172.05 92.0749 170.016C92.0749 168.235 93.3466 166.625 95.2117 166.37L96.7378 166.116C102.333 165.183 107.59 164.251 111.405 160.181C114.202 157.129 116.915 141.869 116.407 132.458C116.237 130.424 117.848 128.559 119.882 128.474C121.917 128.304 123.782 129.915 123.867 131.95V132.035C124.376 140.258 122.341 159.418 116.915 165.268C111.32 171.287 104.283 172.474 98.0094 173.576L96.4834 173.831C96.2291 173.746 96.0595 173.746 95.8052 173.746Z" fill="#2644D9"/>
</g>
<mask id="mask11_62_68138" style="mask-type:luminance" maskUnits="userSpaceOnUse" x="30" y="18" width="252" height="224">
<path d="M281.728 18.6H30.2725V241.4H281.728V18.6Z" fill="white"/>
</mask>
<g mask="url(#mask11_62_68138)">
<path d="M69.3492 188.415C67.484 188.415 65.8732 187.059 65.6189 185.193L64.0929 174.087C63.8385 172.222 65.0254 170.442 66.8058 169.933L94.1895 162.473C96.2242 161.964 98.2589 163.066 98.7676 165.101C98.7676 165.27 98.8524 165.355 98.8524 165.525L100.633 176.8C100.972 178.665 99.7849 180.531 97.9198 181.039L70.2818 188.33C70.0274 188.33 69.6883 188.415 69.3492 188.415ZM71.9773 176.292L72.486 179.937L92.7483 174.596L92.1548 170.781L71.9773 176.292Z" fill="#2644D9"/>
</g>
<mask id="mask12_62_68138" style="mask-type:luminance" maskUnits="userSpaceOnUse" x="30" y="18" width="252" height="224">
<path d="M281.728 18.6H30.2725V241.4H281.728V18.6Z" fill="white"/>
</mask>
<g mask="url(#mask12_62_68138)">
<path d="M160.406 194.092C159.473 194.092 158.54 193.753 157.777 193.075L144.552 180.358C143.026 178.917 143.026 176.543 144.467 175.017C144.806 174.678 145.145 174.423 145.654 174.169L178.718 159.163C180.583 158.315 182.872 159.163 183.72 161.028C184.568 162.893 183.72 165.182 181.855 166.03L153.793 178.747L160.745 185.445L187.111 166.115C188.807 164.928 191.096 165.267 192.367 166.878C193.554 168.573 193.215 170.863 191.604 172.134L162.695 193.414C162.016 193.838 161.253 194.092 160.406 194.092Z" fill="#2644D9"/>
</g>
<mask id="mask13_62_68138" style="mask-type:luminance" maskUnits="userSpaceOnUse" x="30" y="18" width="252" height="224">
<path d="M281.728 18.6H30.2725V241.4H281.728V18.6Z" fill="white"/>
</mask>
<g mask="url(#mask13_62_68138)">
<path d="M146.927 150.008C137.178 150.008 128.53 146.278 121.154 138.987C106.403 124.405 99.7051 97.2753 99.7051 78.2C99.7051 76.1653 101.401 74.4697 103.435 74.4697C105.47 74.4697 107.166 76.1653 107.166 78.2C107.166 96.2579 113.778 121.183 126.411 133.646C132.345 139.58 139.297 142.547 147.181 142.463C177.109 142.208 187.197 98.2079 187.197 78.2C187.197 76.1653 188.893 74.4697 190.928 74.4697C192.962 74.4697 194.658 76.1653 194.658 78.2C194.658 101.514 183.043 149.669 147.181 150.008C147.097 150.008 147.012 150.008 146.927 150.008Z" fill="#2644D9"/>
</g>
<mask id="mask14_62_68138" style="mask-type:luminance" maskUnits="userSpaceOnUse" x="30" y="18" width="252" height="224">
<path d="M281.728 18.6H30.2725V241.4H281.728V18.6Z" fill="white"/>
</mask>
<g mask="url(#mask14_62_68138)">
<path d="M230.607 241.399C228.572 241.399 226.877 239.704 226.877 237.669C226.877 217.152 222.638 197.908 215.262 184.852C214.245 183.071 214.923 180.782 216.703 179.765C218.484 178.747 220.773 179.426 221.79 181.206C232.727 200.62 234.337 224.952 234.337 237.754C234.422 239.789 232.727 241.399 230.607 241.399ZM198.561 173.745C198.306 173.745 198.137 173.745 197.882 173.661L196.441 173.406C190.083 172.304 182.876 171.117 177.451 165.098C172.109 159.248 170.075 140.003 170.499 131.864C170.668 129.83 172.449 128.219 174.483 128.388C176.518 128.558 178.044 130.254 177.959 132.288C177.451 141.699 180.163 157.044 182.961 160.096C186.691 164.165 191.778 165.098 197.628 166.03L199.154 166.285C201.189 166.624 202.545 168.574 202.206 170.609C201.952 172.474 200.426 173.745 198.561 173.745Z" fill="#2644D9"/>
</g>
<mask id="mask15_62_68138" style="mask-type:luminance" maskUnits="userSpaceOnUse" x="30" y="18" width="252" height="224">
<path d="M281.728 18.6H30.2725V241.4H281.728V18.6Z" fill="white"/>
</mask>
<g mask="url(#mask15_62_68138)">
<path d="M225.01 188.415C224.671 188.415 224.332 188.415 224.078 188.331L196.44 181.04C194.574 180.531 193.388 178.75 193.727 176.801L195.507 165.525C195.846 163.49 197.711 162.049 199.831 162.388C200 162.388 200.085 162.473 200.255 162.473L227.638 169.933C229.419 170.442 230.606 172.222 230.351 174.088L228.825 185.194C228.486 186.974 226.875 188.415 225.01 188.415ZM201.696 174.596L221.958 179.937L222.467 176.292L202.374 170.781L201.696 174.596Z" fill="#2644D9"/>
</g>
<mask id="mask16_62_68138" style="mask-type:luminance" maskUnits="userSpaceOnUse" x="30" y="18" width="252" height="224">
<path d="M281.728 18.6H30.2725V241.4H281.728V18.6Z" fill="white"/>
</mask>
<g mask="url(#mask16_62_68138)">
<path d="M146.837 47.1703C142.174 47.1703 137.596 46.916 133.018 46.3225C130.984 46.0682 129.542 44.203 129.797 42.0835C130.051 40.0488 131.916 38.6076 134.036 38.8619C142.853 39.9641 151.755 39.9641 160.572 38.8619C162.606 38.6076 164.471 40.1336 164.726 42.1683C164.98 44.203 163.539 46.0682 161.419 46.3225C156.502 46.916 151.67 47.1703 146.837 47.1703Z" fill="#2644D9"/>
</g>
<mask id="mask17_62_68138" style="mask-type:luminance" maskUnits="userSpaceOnUse" x="30" y="18" width="252" height="224">
<path d="M281.728 18.6H30.2725V241.4H281.728V18.6Z" fill="white"/>
</mask>
<g mask="url(#mask17_62_68138)">
<path d="M147.182 52.3422C145.148 52.3422 143.452 50.6466 143.452 48.6119V38.5231C143.452 36.4884 145.148 34.7928 147.182 34.7928C149.217 34.7928 150.913 36.4884 150.913 38.5231V48.6119C150.913 50.6466 149.302 52.3422 147.182 52.3422Z" fill="#2644D9"/>
</g>
<mask id="mask18_62_68138" style="mask-type:luminance" maskUnits="userSpaceOnUse" x="30" y="18" width="252" height="224">
<path d="M281.728 18.6H30.2725V241.4H281.728V18.6Z" fill="white"/>
</mask>
<g mask="url(#mask18_62_68138)">
<path d="M220.097 165.099C218.063 165.099 216.367 163.403 216.367 161.369C216.367 160.351 216.791 159.419 217.469 158.741L260.113 116.266C263.928 112.281 273.084 98.4625 274.271 93.1214C268.93 94.3931 255.111 103.464 251.127 107.364L201.276 157.215C199.835 158.656 197.461 158.656 195.935 157.215C194.409 155.773 194.494 153.399 195.935 151.873L245.785 102.023C246.04 101.769 272.321 79.4719 280.121 87.2716C287.921 95.0713 265.624 121.268 265.369 121.522L222.725 163.997C222.047 164.76 221.115 165.099 220.097 165.099Z" fill="#2644D9"/>
</g>
<mask id="mask19_62_68138" style="mask-type:luminance" maskUnits="userSpaceOnUse" x="30" y="18" width="252" height="224">
<path d="M281.728 18.6H30.2725V241.4H281.728V18.6Z" fill="white"/>
</mask>
<g mask="url(#mask19_62_68138)">
<path d="M264.181 185.954C264.012 185.954 263.842 185.954 263.673 185.954C262.486 185.784 261.468 185.106 260.96 184.089L237.137 142.886C236.119 141.106 236.713 138.817 238.493 137.714C240.274 136.697 242.563 137.291 243.665 139.071V139.156L265.029 176.119L270.455 170.778L251.804 127.71C250.956 125.845 251.804 123.641 253.754 122.793C255.619 121.945 257.823 122.793 258.671 124.743L278.424 170.185C279.018 171.626 278.763 173.237 277.661 174.339L266.979 184.852C266.131 185.615 265.199 185.954 264.181 185.954Z" fill="#2644D9"/>
</g>
<mask id="mask20_62_68138" style="mask-type:luminance" maskUnits="userSpaceOnUse" x="30" y="18" width="252" height="224">
<path d="M281.728 18.6H30.2725V241.4H281.728V18.6Z" fill="white"/>
</mask>
<g mask="url(#mask20_62_68138)">
<path d="M226.283 130.679C225.605 130.679 225.011 130.509 224.418 130.17L194.66 112.96C192.88 111.942 192.286 109.653 193.304 107.873C194.321 106.093 196.61 105.499 198.391 106.517L228.148 123.727C229.928 124.744 230.522 127.033 229.505 128.813C228.911 129.916 227.639 130.679 226.283 130.679ZM241.035 115.757C240.526 115.757 240.017 115.673 239.508 115.418L198.56 97.7843C196.695 96.9365 195.847 94.7322 196.695 92.7823C197.543 90.9171 199.662 90.1541 201.527 90.8324L242.476 108.551C244.341 109.399 245.273 111.603 244.426 113.468C243.917 114.91 242.561 115.757 241.035 115.757Z" fill="#2644D9"/>
</g>
<mask id="mask21_62_68138" style="mask-type:luminance" maskUnits="userSpaceOnUse" x="30" y="18" width="252" height="224">
<path d="M281.728 18.6H30.2725V241.4H281.728V18.6Z" fill="white"/>
</mask>
<g mask="url(#mask21_62_68138)">
<path d="M201.094 155.857C200.585 155.857 200.077 155.773 199.568 155.518L192.447 152.466L190.412 154.416C188.886 155.857 186.512 155.773 185.071 154.246C183.629 152.805 183.714 150.431 185.156 148.99L188.971 145.26C190.073 144.243 191.684 143.903 193.04 144.497L202.45 148.566C204.316 149.414 205.248 151.618 204.4 153.483C203.977 154.925 202.62 155.857 201.094 155.857Z" fill="#2644D9"/>
</g>
<mask id="mask22_62_68138" style="mask-type:luminance" maskUnits="userSpaceOnUse" x="30" y="18" width="252" height="224">
<path d="M281.728 18.6H30.2725V241.4H281.728V18.6Z" fill="white"/>
</mask>
<g mask="url(#mask22_62_68138)">
<path d="M208.482 162.47C206.448 162.47 204.752 160.775 204.752 158.74C204.752 157.723 205.176 156.79 205.854 156.027L210.432 151.534C211.958 150.093 214.332 150.093 215.773 151.619C217.215 153.145 217.215 155.518 215.688 156.96L211.11 161.453C210.432 162.046 209.5 162.47 208.482 162.47Z" fill="#2644D9"/>
</g>
</svg>
